# MagicaVoxel @ Ephtracy

# group
o 

# material
mtllib Player_Frame4.mtl
usemtl palette

# normals
vn -1 0 0
vn 1 0 0
vn 0 0 1
vn 0 0 -1
vn 0 -1 0
vn 0 1 0

# texcoords
vt 0.287109 0.5
vt 0.314453 0.5
vt 0.361328 0.5
vt 0.369141 0.5
vt 0.373047 0.5
vt 0.751953 0.5
vt 0.845703 0.5
vt 0.865234 0.5
vt 0.892578 0.5
vt 0.939453 0.5
vt 0.986328 0.5

# verts
v -0.3 0.3 -0.1
v -0.3 0.3 -0.2
v -0.3 0.4 0
v -0.3 0.4 -0.1
v -0.3 0.4 -0.2
v -0.3 0.5 0.1
v -0.3 0.5 0
v -0.3 0.5 -0.1
v -0.3 0.6 0.1
v -0.3 0.6 0
v -0.3 0.7 0.1
v -0.3 0.7 0
v -0.3 0.8 0
v -0.3 0.8 -0.1
v -0.3 0.9 0.1
v -0.3 0.9 -0.1
v -0.2 0.1 0.1
v -0.2 0.1 -0.1
v -0.2 0.1 -0.2
v -0.2 0.2 0
v -0.2 0.2 -0.1
v -0.2 0.2 -0.2
v -0.2 0.3 0.2
v -0.2 0.3 0.1
v -0.2 0.3 0
v -0.2 0.3 -0.1
v -0.2 0.4 0
v -0.2 0.4 -0.1
v -0.2 0.4 -0.2
v -0.2 0.5 0.1
v -0.2 0.5 0
v -0.2 0.5 -0.1
v -0.2 0.6 0.2
v -0.2 0.6 0.1
v -0.2 0.6 0
v -0.2 0.6 -0.1
v -0.2 0.6 -0.2
v -0.2 0.6 -0.3
v -0.2 0.7 0.2
v -0.2 0.7 0.1
v -0.2 0.7 0
v -0.2 0.7 -0.1
v -0.2 0.7 -0.2
v -0.2 0.8 0.2
v -0.2 0.8 0.1
v -0.2 0.8 0
v -0.2 0.8 -0.1
v -0.2 0.8 -0.2
v -0.2 0.8 -0.3
v -0.2 0.9 0.2
v -0.2 0.9 0.1
v -0.2 0.9 -0.1
v -0.2 0.9 -0.2
v -0.2 1 0.2
v -0.2 1 -0.1
v -0.1 0.5 -0.3
v -0.1 0.5 -0.4
v -0.1 0.6 -0.3
v -0.1 0.7 -0.3
v -0.1 0.7 -0.4
v -0.1 0.8 -0.2
v -0.1 0.8 -0.3
v -0.1 0.9 -0.1
v -0.1 0.9 -0.2
v -0.1 0.9 -0.3
v -0.1 1 0.1
v -0.1 1 -0.1
v -0.1 1 -0.2
v -0.1 1.1 0.1
v -0.1 1.1 -0.1
v 0.1 0 0.2
v 0.1 0 0.1
v 0.1 0.1 0.2
v 0.1 0.1 0.1
v 0.1 0.2 0.2
v 0.1 0.2 0.1
v 0.1 0.2 0
v 0.1 0.3 0.1
v 0.1 0.3 0
v 0.2 0.3 0.3
v 0.2 0.3 0.2
v 0.2 0.4 0.3
v 0.2 0.4 0.2
v -0.1 0.1 0.1
v -0.1 0.1 -0.1
v -0.1 0.1 -0.2
v -0.1 0.2 0
v -0.1 0.2 -0.1
v -0.1 0.2 -0.2
v -0.1 0.3 0.1
v -0.1 0.3 0
v 0.1 0.5 -0.3
v 0.1 0.5 -0.4
v 0.1 0.6 -0.1
v 0.1 0.6 -0.2
v 0.1 0.6 -0.3
v 0.1 0.7 -0.1
v 0.1 0.7 -0.2
v 0.1 0.7 -0.3
v 0.1 0.7 -0.4
v 0.1 0.8 -0.2
v 0.1 0.8 -0.3
v 0.1 0.9 -0.1
v 0.1 0.9 -0.2
v 0.1 0.9 -0.3
v 0.1 1 0.1
v 0.1 1 -0.1
v 0.1 1 -0.2
v 0.1 1.1 0.1
v 0.1 1.1 -0.1
v 0.2 0 0.2
v 0.2 0 0.1
v 0.2 0.1 0.2
v 0.2 0.1 0.1
v 0.2 0.2 0.2
v 0.2 0.2 0.1
v 0.2 0.2 0
v 0.2 0.3 0.2
v 0.2 0.3 0.1
v 0.2 0.3 0
v 0.2 0.3 -0.1
v 0.2 0.3 -0.2
v 0.2 0.4 0.2
v 0.2 0.4 0.1
v 0.2 0.4 -0.1
v 0.2 0.4 -0.2
v 0.2 0.5 0.2
v 0.2 0.5 0.1
v 0.2 0.5 0
v 0.2 0.6 0.2
v 0.2 0.6 0.1
v 0.2 0.6 0
v 0.2 0.6 -0.1
v 0.2 0.6 -0.2
v 0.2 0.7 0.2
v 0.2 0.7 0.1
v 0.2 0.7 0
v 0.2 0.7 -0.1
v 0.2 0.7 -0.2
v 0.2 0.7 -0.3
v 0.2 0.8 0.2
v 0.2 0.8 0.1
v 0.2 0.8 0
v 0.2 0.8 -0.1
v 0.2 0.8 -0.2
v 0.2 0.8 -0.3
v 0.2 0.9 0.2
v 0.2 0.9 0.1
v 0.2 0.9 -0.1
v 0.2 0.9 -0.2
v 0.2 1 0.2
v 0.2 1 -0.1
v 0.3 0.3 0.3
v 0.3 0.3 0.2
v 0.3 0.4 0.3
v 0.3 0.4 0.2
v 0.3 0.4 0.1
v 0.3 0.5 0.2
v 0.3 0.5 0.1
v 0.3 0.5 0
v 0.3 0.6 0.1
v 0.3 0.6 0
v 0.3 0.7 0.1
v 0.3 0.7 0
v 0.3 0.8 0
v 0.3 0.8 -0.1
v 0.3 0.9 0.1
v 0.3 0.9 -0.1
v 0.2 0.3 0.3
v 0.2 0.4 0.3
v 0.3 0.3 0.3
v 0.3 0.4 0.3
v -0.2 0.3 0.2
v -0.2 0.6 0.2
v -0.2 0.7 0.2
v -0.2 0.8 0.2
v -0.2 0.9 0.2
v -0.2 1 0.2
v -0.1 0.7 0.2
v -0.1 0.8 0.2
v 0.1 0 0.2
v 0.1 0.1 0.2
v 0.1 0.2 0.2
v 0.1 0.7 0.2
v 0.1 0.8 0.2
v 0.2 0 0.2
v 0.2 0.1 0.2
v 0.2 0.2 0.2
v 0.2 0.3 0.2
v 0.2 0.4 0.2
v 0.2 0.5 0.2
v 0.2 0.6 0.2
v 0.2 0.7 0.2
v 0.2 0.8 0.2
v 0.2 0.9 0.2
v 0.2 1 0.2
v 0.3 0.4 0.2
v 0.3 0.5 0.2
v -0.3 0.5 0.1
v -0.3 0.6 0.1
v -0.3 0.7 0.1
v -0.3 0.9 0.1
v -0.2 0.1 0.1
v -0.2 0.3 0.1
v -0.2 0.5 0.1
v -0.2 0.6 0.1
v -0.2 0.7 0.1
v -0.2 0.8 0.1
v -0.2 0.9 0.1
v -0.1 0.1 0.1
v -0.1 0.3 0.1
v -0.1 1 0.1
v -0.1 1.1 0.1
v 0.1 0.2 0.1
v 0.1 0.3 0.1
v 0.1 1 0.1
v 0.1 1.1 0.1
v 0.2 0.2 0.1
v 0.2 0.3 0.1
v 0.2 0.5 0.1
v 0.2 0.6 0.1
v 0.2 0.7 0.1
v 0.2 0.8 0.1
v 0.2 0.9 0.1
v 0.3 0.5 0.1
v 0.3 0.6 0.1
v 0.3 0.7 0.1
v 0.3 0.9 0.1
v -0.3 0.4 0
v -0.3 0.5 0
v -0.2 0.4 0
v -0.2 0.5 0
v -0.3 0.3 -0.1
v -0.3 0.4 -0.1
v -0.2 0.3 -0.1
v -0.2 0.4 -0.1
v -0.1 0.5 -0.3
v -0.1 0.6 -0.3
v 0.1 0.5 -0.3
v 0.1 0.6 -0.3
v 0.2 0.3 0.2
v 0.2 0.4 0.2
v 0.3 0.3 0.2
v 0.3 0.4 0.2
v 0.1 0 0.1
v 0.1 0.1 0.1
v 0.1 0.2 0.1
v 0.2 0 0.1
v 0.2 0.1 0.1
v 0.2 0.2 0.1
v 0.2 0.4 0.1
v 0.2 0.5 0.1
v 0.3 0.4 0.1
v 0.3 0.5 0.1
v -0.3 0.5 0
v -0.3 0.6 0
v -0.3 0.7 0
v -0.3 0.8 0
v -0.2 0.2 0
v -0.2 0.3 0
v -0.2 0.5 0
v -0.2 0.6 0
v -0.2 0.7 0
v -0.2 0.8 0
v -0.1 0.2 0
v -0.1 0.3 0
v 0.1 0.2 0
v 0.1 0.3 0
v 0.2 0.2 0
v 0.2 0.3 0
v 0.2 0.5 0
v 0.2 0.6 0
v 0.2 0.7 0
v 0.2 0.8 0
v 0.3 0.5 0
v 0.3 0.6 0
v 0.3 0.7 0
v 0.3 0.8 0
v -0.3 0.4 -0.1
v -0.3 0.5 -0.1
v -0.3 0.8 -0.1
v -0.3 0.9 -0.1
v -0.2 0.4 -0.1
v -0.2 0.5 -0.1
v -0.2 0.8 -0.1
v -0.2 0.9 -0.1
v -0.2 1 -0.1
v -0.1 0.9 -0.1
v -0.1 1 -0.1
v -0.1 1.1 -0.1
v 0.1 0.6 -0.1
v 0.1 0.7 -0.1
v 0.1 0.9 -0.1
v 0.1 1 -0.1
v 0.1 1.1 -0.1
v 0.2 0.6 -0.1
v 0.2 0.7 -0.1
v 0.2 0.8 -0.1
v 0.2 0.9 -0.1
v 0.2 1 -0.1
v 0.3 0.8 -0.1
v 0.3 0.9 -0.1
v -0.3 0.3 -0.2
v -0.3 0.4 -0.2
v -0.2 0.1 -0.2
v -0.2 0.2 -0.2
v -0.2 0.3 -0.2
v -0.2 0.4 -0.2
v -0.2 0.6 -0.2
v -0.2 0.8 -0.2
v -0.2 0.9 -0.2
v -0.1 0.1 -0.2
v -0.1 0.2 -0.2
v -0.1 0.4 -0.2
v -0.1 0.6 -0.2
v -0.1 0.8 -0.2
v -0.1 0.9 -0.2
v -0.1 1 -0.2
v 0.1 0.4 -0.2
v 0.1 0.6 -0.2
v 0.1 0.8 -0.2
v 0.1 0.9 -0.2
v 0.1 1 -0.2
v 0.2 0.3 -0.2
v 0.2 0.4 -0.2
v 0.2 0.6 -0.2
v 0.2 0.8 -0.2
v 0.2 0.9 -0.2
v -0.2 0.6 -0.3
v -0.2 0.8 -0.3
v -0.1 0.6 -0.3
v -0.1 0.7 -0.3
v -0.1 0.8 -0.3
v -0.1 0.9 -0.3
v 0.1 0.7 -0.3
v 0.1 0.8 -0.3
v 0.1 0.9 -0.3
v 0.2 0.7 -0.3
v 0.2 0.8 -0.3
v -0.1 0.5 -0.4
v -0.1 0.7 -0.4
v 0.1 0.5 -0.4
v 0.1 0.7 -0.4
v 0.1 0 0.2
v 0.2 0 0.2
v 0.1 0 0.1
v 0.2 0 0.1
v -0.2 0.1 0.1
v -0.1 0.1 0.1
v -0.2 0.1 -0.1
v -0.1 0.1 -0.1
v -0.2 0.1 -0.2
v -0.1 0.1 -0.2
v 0.1 0.2 0.1
v 0.2 0.2 0.1
v 0.1 0.2 0
v 0.2 0.2 0
v 0.2 0.3 0.3
v 0.3 0.3 0.3
v -0.2 0.3 0.2
v 0.2 0.3 0.2
v 0.3 0.3 0.2
v -0.2 0.3 0.1
v -0.1 0.3 0.1
v 0.1 0.3 0.1
v 0.2 0.3 0.1
v -0.2 0.3 0
v -0.1 0.3 0
v 0.1 0.3 0
v 0.2 0.3 0
v -0.3 0.3 -0.1
v -0.2 0.3 -0.1
v 0.2 0.3 -0.1
v -0.3 0.3 -0.2
v -0.2 0.3 -0.2
v 0.2 0.3 -0.2
v 0.2 0.4 0.2
v 0.3 0.4 0.2
v 0.2 0.4 0.1
v 0.3 0.4 0.1
v -0.3 0.4 0
v -0.2 0.4 0
v -0.3 0.4 -0.1
v -0.2 0.4 -0.1
v -0.3 0.5 0.1
v -0.2 0.5 0.1
v 0.2 0.5 0.1
v 0.3 0.5 0.1
v -0.3 0.5 0
v -0.2 0.5 0
v 0.2 0.5 0
v 0.3 0.5 0
v -0.1 0.5 -0.3
v 0.1 0.5 -0.3
v -0.1 0.5 -0.4
v 0.1 0.5 -0.4
v -0.2 0.6 -0.2
v -0.1 0.6 -0.2
v 0.1 0.6 -0.2
v -0.2 0.6 -0.3
v -0.1 0.6 -0.3
v 0.1 0.6 -0.3
v -0.3 0.7 0.1
v -0.2 0.7 0.1
v 0.2 0.7 0.1
v 0.3 0.7 0.1
v -0.3 0.7 0
v -0.2 0.7 0
v 0.2 0.7 0
v 0.3 0.7 0
v 0.1 0.7 -0.1
v 0.2 0.7 -0.1
v 0.1 0.7 -0.2
v 0.2 0.7 -0.2
v 0.1 0.7 -0.3
v 0.2 0.7 -0.3
v -0.3 0.8 0
v -0.2 0.8 0
v 0.2 0.8 0
v 0.3 0.8 0
v -0.3 0.8 -0.1
v -0.2 0.8 -0.1
v 0.2 0.8 -0.1
v 0.3 0.8 -0.1
v 0.1 0.2 0.2
v 0.2 0.2 0.2
v 0.1 0.2 0.1
v 0.2 0.2 0.1
v -0.2 0.2 0
v -0.1 0.2 0
v -0.2 0.2 -0.1
v -0.1 0.2 -0.1
v -0.2 0.2 -0.2
v -0.1 0.2 -0.2
v 0.2 0.4 0.3
v 0.3 0.4 0.3
v 0.2 0.4 0.2
v 0.3 0.4 0.2
v -0.3 0.4 -0.1
v -0.2 0.4 -0.1
v -0.3 0.4 -0.2
v -0.2 0.4 -0.2
v 0.2 0.5 0.2
v 0.3 0.5 0.2
v 0.2 0.5 0.1
v 0.3 0.5 0.1
v -0.3 0.5 0
v -0.2 0.5 0
v -0.3 0.5 -0.1
v -0.2 0.5 -0.1
v -0.3 0.6 0.1
v -0.2 0.6 0.1
v 0.2 0.6 0.1
v 0.3 0.6 0.1
v -0.3 0.6 0
v -0.2 0.6 0
v 0.2 0.6 0
v 0.3 0.6 0
v 0.1 0.6 -0.1
v 0.2 0.6 -0.1
v 0.1 0.6 -0.2
v 0.2 0.6 -0.2
v -0.1 0.7 -0.3
v 0.1 0.7 -0.3
v -0.1 0.7 -0.4
v 0.1 0.7 -0.4
v -0.2 0.8 -0.2
v -0.1 0.8 -0.2
v 0.1 0.8 -0.2
v 0.2 0.8 -0.2
v -0.2 0.8 -0.3
v -0.1 0.8 -0.3
v 0.1 0.8 -0.3
v 0.2 0.8 -0.3
v -0.3 0.9 0.1
v -0.2 0.9 0.1
v 0.2 0.9 0.1
v 0.3 0.9 0.1
v -0.3 0.9 -0.1
v -0.2 0.9 -0.1
v -0.1 0.9 -0.1
v 0.1 0.9 -0.1
v 0.2 0.9 -0.1
v 0.3 0.9 -0.1
v -0.2 0.9 -0.2
v -0.1 0.9 -0.2
v 0.1 0.9 -0.2
v 0.2 0.9 -0.2
v -0.1 0.9 -0.3
v 0.1 0.9 -0.3
v -0.2 1 0.2
v 0.2 1 0.2
v -0.1 1 0.1
v 0.1 1 0.1
v -0.2 1 -0.1
v -0.1 1 -0.1
v 0.1 1 -0.1
v 0.2 1 -0.1
v -0.1 1 -0.2
v 0.1 1 -0.2
v -0.1 1.1 0.1
v 0.1 1.1 0.1
v -0.1 1.1 -0.1
v 0.1 1.1 -0.1

# faces
f 4/2/1 2/2/1 1/2/1
f 5/2/1 2/2/1 4/2/1
f 7/8/1 4/8/1 3/8/1
f 8/8/1 4/8/1 7/8/1
f 9/8/1 7/8/1 6/8/1
f 10/8/1 7/8/1 9/8/1
f 13/9/1 12/9/1 11/9/1
f 15/9/1 13/9/1 11/9/1
f 15/9/1 14/9/1 13/9/1
f 16/9/1 14/9/1 15/9/1
f 20/7/1 18/7/1 17/7/1
f 21/11/1 19/11/1 18/11/1
f 21/7/1 18/7/1 20/7/1
f 22/11/1 19/11/1 21/11/1
f 24/7/1 20/7/1 17/7/1
f 25/7/1 20/7/1 24/7/1
f 27/6/1 24/6/1 23/6/1
f 27/6/1 26/6/1 25/6/1
f 27/6/1 25/6/1 24/6/1
f 28/6/1 26/6/1 27/6/1
f 30/6/1 27/6/1 23/6/1
f 31/6/1 27/6/1 30/6/1
f 32/5/1 29/5/1 28/5/1
f 33/6/1 30/6/1 23/6/1
f 34/6/1 30/6/1 33/6/1
f 35/6/1 32/6/1 31/6/1
f 36/5/1 29/5/1 32/5/1
f 36/6/1 32/6/1 35/6/1
f 37/5/1 29/5/1 36/5/1
f 39/1/1 34/1/1 33/1/1
f 39/1/1 35/1/1 34/1/1
f 39/1/1 36/1/1 35/1/1
f 40/1/1 36/1/1 39/1/1
f 41/1/1 36/1/1 40/1/1
f 42/9/1 37/9/1 36/9/1
f 42/1/1 36/1/1 41/1/1
f 42/9/1 38/9/1 37/9/1
f 43/9/1 38/9/1 42/9/1
f 44/10/1 40/10/1 39/10/1
f 45/10/1 40/10/1 44/10/1
f 46/1/1 43/1/1 42/1/1
f 46/1/1 42/1/1 41/1/1
f 47/1/1 43/1/1 46/1/1
f 48/9/1 38/9/1 43/9/1
f 48/1/1 43/1/1 47/1/1
f 49/9/1 38/9/1 48/9/1
f 50/1/1 45/1/1 44/1/1
f 51/1/1 45/1/1 50/1/1
f 52/9/1 48/9/1 47/9/1
f 53/9/1 48/9/1 52/9/1
f 54/9/1 51/9/1 50/9/1
f 54/9/1 52/9/1 51/9/1
f 55/9/1 52/9/1 54/9/1
f 58/9/1 57/9/1 56/9/1
f 59/9/1 57/9/1 58/9/1
f 60/9/1 57/9/1 59/9/1
f 64/9/1 62/9/1 61/9/1
f 65/9/1 62/9/1 64/9/1
f 67/9/1 64/9/1 63/9/1
f 68/9/1 64/9/1 67/9/1
f 69/9/1 67/9/1 66/9/1
f 70/9/1 67/9/1 69/9/1
f 73/11/1 72/11/1 71/11/1
f 74/11/1 72/11/1 73/11/1
f 75/7/1 74/7/1 73/7/1
f 76/7/1 74/7/1 75/7/1
f 78/7/1 77/7/1 76/7/1
f 79/7/1 77/7/1 78/7/1
f 82/2/1 81/2/1 80/2/1
f 83/2/1 81/2/1 82/2/1
f 84/7/2 85/7/2 87/7/2
f 85/11/2 86/11/2 88/11/2
f 87/7/2 85/7/2 88/7/2
f 88/11/2 86/11/2 89/11/2
f 84/7/2 87/7/2 90/7/2
f 90/7/2 87/7/2 91/7/2
f 92/9/2 93/9/2 96/9/2
f 94/1/2 95/1/2 97/1/2
f 95/9/2 96/9/2 98/9/2
f 97/1/2 95/1/2 98/1/2
f 96/9/2 93/9/2 99/9/2
f 98/9/2 96/9/2 99/9/2
f 99/9/2 93/9/2 100/9/2
f 101/9/2 102/9/2 104/9/2
f 104/9/2 102/9/2 105/9/2
f 103/9/2 104/9/2 107/9/2
f 107/9/2 104/9/2 108/9/2
f 106/9/2 107/9/2 109/9/2
f 109/9/2 107/9/2 110/9/2
f 111/11/2 112/11/2 113/11/2
f 113/11/2 112/11/2 114/11/2
f 113/7/2 114/7/2 115/7/2
f 115/7/2 114/7/2 116/7/2
f 116/7/2 117/7/2 119/7/2
f 119/7/2 117/7/2 120/7/2
f 118/6/2 119/6/2 123/6/2
f 119/6/2 120/6/2 123/6/2
f 120/6/2 121/6/2 123/6/2
f 123/6/2 121/6/2 124/6/2
f 121/3/2 122/3/2 125/3/2
f 124/6/2 121/6/2 125/6/2
f 125/3/2 122/3/2 126/3/2
f 124/6/2 125/6/2 128/6/2
f 128/6/2 125/6/2 129/6/2
f 127/6/2 128/6/2 130/6/2
f 130/6/2 128/6/2 131/6/2
f 129/6/2 125/6/2 132/6/2
f 125/5/2 126/5/2 133/5/2
f 132/6/2 125/6/2 133/6/2
f 133/5/2 126/5/2 134/5/2
f 131/1/2 132/1/2 135/1/2
f 130/1/2 131/1/2 135/1/2
f 132/1/2 133/1/2 135/1/2
f 135/1/2 133/1/2 136/1/2
f 136/1/2 133/1/2 137/1/2
f 137/1/2 133/1/2 138/1/2
f 135/10/2 136/10/2 141/10/2
f 141/10/2 136/10/2 142/10/2
f 138/1/2 139/1/2 143/1/2
f 137/1/2 138/1/2 143/1/2
f 143/1/2 139/1/2 144/1/2
f 139/9/2 140/9/2 145/9/2
f 144/1/2 139/1/2 145/1/2
f 145/9/2 140/9/2 146/9/2
f 141/1/2 142/1/2 147/1/2
f 147/1/2 142/1/2 148/1/2
f 144/9/2 145/9/2 149/9/2
f 149/9/2 145/9/2 150/9/2
f 147/9/2 148/9/2 151/9/2
f 148/9/2 149/9/2 151/9/2
f 151/9/2 149/9/2 152/9/2
f 153/2/2 154/2/2 155/2/2
f 155/2/2 154/2/2 156/2/2
f 156/8/2 157/8/2 158/8/2
f 158/8/2 157/8/2 159/8/2
f 159/8/2 160/8/2 161/8/2
f 161/8/2 160/8/2 162/8/2
f 163/9/2 164/9/2 165/9/2
f 163/9/2 165/9/2 167/9/2
f 165/9/2 166/9/2 167/9/2
f 167/9/2 166/9/2 168/9/2
f 171/2/3 170/2/3 169/2/3
f 172/2/3 170/2/3 171/2/3
f 179/1/3 175/1/3 174/1/3
f 179/10/3 176/10/3 175/10/3
f 180/1/3 177/1/3 176/1/3
f 180/10/3 176/10/3 179/10/3
f 184/1/3 179/1/3 174/1/3
f 184/1/3 180/1/3 179/1/3
f 185/1/3 177/1/3 180/1/3
f 185/1/3 180/1/3 184/1/3
f 186/11/3 182/11/3 181/11/3
f 187/7/3 183/7/3 182/7/3
f 187/11/3 182/11/3 186/11/3
f 188/7/3 183/7/3 187/7/3
f 189/6/3 174/6/3 173/6/3
f 190/6/3 174/6/3 189/6/3
f 191/6/3 174/6/3 190/6/3
f 192/1/3 184/1/3 174/1/3
f 192/6/3 174/6/3 191/6/3
f 193/10/3 185/10/3 184/10/3
f 193/1/3 184/1/3 192/1/3
f 194/1/3 177/1/3 185/1/3
f 194/10/3 185/10/3 193/10/3
f 195/9/3 178/9/3 177/9/3
f 195/1/3 177/1/3 194/1/3
f 196/9/3 178/9/3 195/9/3
f 197/8/3 191/8/3 190/8/3
f 198/8/3 191/8/3 197/8/3
f 205/8/3 200/8/3 199/8/3
f 206/8/3 200/8/3 205/8/3
f 207/9/3 202/9/3 201/9/3
f 208/9/3 202/9/3 207/9/3
f 209/9/3 202/9/3 208/9/3
f 210/7/3 204/7/3 203/7/3
f 211/7/3 204/7/3 210/7/3
f 216/9/3 213/9/3 212/9/3
f 217/9/3 213/9/3 216/9/3
f 218/7/3 215/7/3 214/7/3
f 219/7/3 215/7/3 218/7/3
f 225/8/3 221/8/3 220/8/3
f 226/8/3 221/8/3 225/8/3
f 227/9/3 224/9/3 223/9/3
f 227/9/3 223/9/3 222/9/3
f 228/9/3 224/9/3 227/9/3
f 231/8/3 230/8/3 229/8/3
f 232/8/3 230/8/3 231/8/3
f 235/2/3 234/2/3 233/2/3
f 236/2/3 234/2/3 235/2/3
f 239/9/3 238/9/3 237/9/3
f 240/9/3 238/9/3 239/9/3
f 241/2/4 242/2/4 243/2/4
f 243/2/4 242/2/4 244/2/4
f 245/11/4 246/11/4 248/11/4
f 246/7/4 247/7/4 249/7/4
f 248/11/4 246/11/4 249/11/4
f 249/7/4 247/7/4 250/7/4
f 251/8/4 252/8/4 253/8/4
f 253/8/4 252/8/4 254/8/4
f 255/8/4 256/8/4 261/8/4
f 261/8/4 256/8/4 262/8/4
f 257/9/4 258/9/4 263/9/4
f 263/9/4 258/9/4 264/9/4
f 259/7/4 260/7/4 265/7/4
f 265/7/4 260/7/4 266/7/4
f 267/7/4 268/7/4 269/7/4
f 269/7/4 268/7/4 270/7/4
f 271/8/4 272/8/4 275/8/4
f 275/8/4 272/8/4 276/8/4
f 273/9/4 274/9/4 277/9/4
f 277/9/4 274/9/4 278/9/4
f 279/8/4 280/8/4 283/8/4
f 283/8/4 280/8/4 284/8/4
f 281/9/4 282/9/4 285/9/4
f 285/9/4 282/9/4 286/9/4
f 286/9/4 287/9/4 288/9/4
f 288/9/4 287/9/4 289/9/4
f 289/9/4 290/9/4 294/9/4
f 294/9/4 290/9/4 295/9/4
f 291/1/4 292/1/4 296/1/4
f 296/1/4 292/1/4 297/1/4
f 293/9/4 294/9/4 299/9/4
f 299/9/4 294/9/4 300/9/4
f 298/9/4 299/9/4 301/9/4
f 301/9/4 299/9/4 302/9/4
f 303/2/4 304/2/4 307/2/4
f 307/2/4 304/2/4 308/2/4
f 305/11/4 306/11/4 312/11/4
f 312/11/4 306/11/4 313/11/4
f 307/3/4 308/3/4 314/3/4
f 308/5/4 309/5/4 314/5/4
f 314/5/4 309/5/4 315/5/4
f 310/9/4 311/9/4 316/9/4
f 316/9/4 311/9/4 317/9/4
f 314/4/4 315/4/4 319/4/4
f 307/3/4 314/3/4 319/3/4
f 319/4/4 315/4/4 320/4/4
f 317/9/4 318/9/4 322/9/4
f 322/9/4 318/9/4 323/9/4
f 307/3/4 319/3/4 324/3/4
f 319/5/4 320/5/4 325/5/4
f 324/3/4 319/3/4 325/3/4
f 325/5/4 320/5/4 326/5/4
f 321/9/4 322/9/4 327/9/4
f 327/9/4 322/9/4 328/9/4
f 329/9/4 330/9/4 331/9/4
f 331/9/4 330/9/4 332/9/4
f 332/9/4 330/9/4 333/9/4
f 333/9/4 334/9/4 335/9/4
f 332/9/4 333/9/4 335/9/4
f 335/9/4 334/9/4 336/9/4
f 336/9/4 334/9/4 337/9/4
f 335/9/4 336/9/4 338/9/4
f 338/9/4 336/9/4 339/9/4
f 340/9/4 341/9/4 342/9/4
f 342/9/4 341/9/4 343/9/4
f 346/11/5 345/11/5 344/11/5
f 347/11/5 345/11/5 346/11/5
f 350/7/5 349/7/5 348/7/5
f 351/7/5 349/7/5 350/7/5
f 352/11/5 351/11/5 350/11/5
f 353/11/5 351/11/5 352/11/5
f 356/7/5 355/7/5 354/7/5
f 357/7/5 355/7/5 356/7/5
f 361/2/5 359/2/5 358/2/5
f 362/2/5 359/2/5 361/2/5
f 363/6/5 361/6/5 360/6/5
f 364/6/5 361/6/5 363/6/5
f 365/6/5 361/6/5 364/6/5
f 366/6/5 361/6/5 365/6/5
f 368/6/5 365/6/5 364/6/5
f 369/6/5 365/6/5 368/6/5
f 372/6/5 368/6/5 367/6/5
f 372/6/5 370/6/5 369/6/5
f 372/6/5 369/6/5 368/6/5
f 373/6/5 370/6/5 372/6/5
f 374/2/5 372/2/5 371/2/5
f 375/3/5 373/3/5 372/3/5
f 375/2/5 372/2/5 374/2/5
f 376/3/5 373/3/5 375/3/5
f 379/8/5 378/8/5 377/8/5
f 380/8/5 378/8/5 379/8/5
f 383/8/5 382/8/5 381/8/5
f 384/8/5 382/8/5 383/8/5
f 389/8/5 386/8/5 385/8/5
f 390/8/5 386/8/5 389/8/5
f 391/8/5 388/8/5 387/8/5
f 392/8/5 388/8/5 391/8/5
f 395/9/5 394/9/5 393/9/5
f 396/9/5 394/9/5 395/9/5
f 400/9/5 398/9/5 397/9/5
f 400/9/5 399/9/5 398/9/5
f 401/9/5 399/9/5 400/9/5
f 402/9/5 399/9/5 401/9/5
f 407/9/5 404/9/5 403/9/5
f 408/9/5 404/9/5 407/9/5
f 409/9/5 406/9/5 405/9/5
f 410/9/5 406/9/5 409/9/5
f 413/1/5 412/1/5 411/1/5
f 414/1/5 412/1/5 413/1/5
f 415/9/5 414/9/5 413/9/5
f 416/9/5 414/9/5 415/9/5
f 421/9/5 418/9/5 417/9/5
f 422/9/5 418/9/5 421/9/5
f 423/9/5 420/9/5 419/9/5
f 424/9/5 420/9/5 423/9/5
f 425/7/6 426/7/6 427/7/6
f 427/7/6 426/7/6 428/7/6
f 429/7/6 430/7/6 431/7/6
f 431/7/6 430/7/6 432/7/6
f 431/11/6 432/11/6 433/11/6
f 433/11/6 432/11/6 434/11/6
f 435/2/6 436/2/6 437/2/6
f 437/2/6 436/2/6 438/2/6
f 439/2/6 440/2/6 441/2/6
f 441/2/6 440/2/6 442/2/6
f 443/8/6 444/8/6 445/8/6
f 445/8/6 444/8/6 446/8/6
f 447/8/6 448/8/6 449/8/6
f 449/8/6 448/8/6 450/8/6
f 451/8/6 452/8/6 455/8/6
f 455/8/6 452/8/6 456/8/6
f 453/8/6 454/8/6 457/8/6
f 457/8/6 454/8/6 458/8/6
f 459/5/6 460/5/6 461/5/6
f 461/5/6 460/5/6 462/5/6
f 463/9/6 464/9/6 465/9/6
f 465/9/6 464/9/6 466/9/6
f 467/9/6 468/9/6 471/9/6
f 471/9/6 468/9/6 472/9/6
f 469/9/6 470/9/6 473/9/6
f 473/9/6 470/9/6 474/9/6
f 475/9/6 476/9/6 479/9/6
f 479/9/6 476/9/6 480/9/6
f 477/9/6 478/9/6 483/9/6
f 483/9/6 478/9/6 484/9/6
f 480/9/6 481/9/6 485/9/6
f 485/9/6 481/9/6 486/9/6
f 482/9/6 483/9/6 487/9/6
f 487/9/6 483/9/6 488/9/6
f 486/9/6 487/9/6 489/9/6
f 489/9/6 487/9/6 490/9/6
f 491/9/6 492/9/6 493/9/6
f 493/9/6 492/9/6 494/9/6
f 491/9/6 493/9/6 495/9/6
f 495/9/6 493/9/6 496/9/6
f 494/9/6 492/9/6 497/9/6
f 497/9/6 492/9/6 498/9/6
f 496/9/6 497/9/6 499/9/6
f 499/9/6 497/9/6 500/9/6
f 501/9/6 502/9/6 503/9/6
f 503/9/6 502/9/6 504/9/6
