# MagicaVoxel @ Ephtracy

# group
o 

# material
mtllib Player_Frame5.mtl
usemtl palette

# normals
vn -1 0 0
vn 1 0 0
vn 0 0 1
vn 0 0 -1
vn 0 -1 0
vn 0 1 0

# texcoords
vt 0.287109 0.5
vt 0.314453 0.5
vt 0.361328 0.5
vt 0.369141 0.5
vt 0.373047 0.5
vt 0.751953 0.5
vt 0.845703 0.5
vt 0.865234 0.5
vt 0.892578 0.5
vt 0.939453 0.5
vt 0.986328 0.5

# verts
v -0.3 0.3 0.3
v -0.3 0.3 0.2
v -0.3 0.4 0.3
v -0.3 0.4 0.2
v -0.3 0.4 0.1
v -0.3 0.5 0.2
v -0.3 0.5 0.1
v -0.3 0.5 0
v -0.3 0.6 0.1
v -0.3 0.6 0
v -0.3 0.7 0.1
v -0.3 0.7 0
v -0.3 0.8 0
v -0.3 0.8 -0.1
v -0.3 0.9 0.1
v -0.3 0.9 -0.1
v -0.2 0 0.2
v -0.2 0 0.1
v -0.2 0.1 0.2
v -0.2 0.1 0.1
v -0.2 0.2 0.2
v -0.2 0.2 0.1
v -0.2 0.2 0
v -0.2 0.3 0.2
v -0.2 0.3 0.1
v -0.2 0.3 0
v -0.2 0.3 -0.1
v -0.2 0.3 -0.2
v -0.2 0.4 0.2
v -0.2 0.4 0.1
v -0.2 0.4 -0.1
v -0.2 0.4 -0.2
v -0.2 0.5 0.2
v -0.2 0.5 0.1
v -0.2 0.5 0
v -0.2 0.6 0.2
v -0.2 0.6 0.1
v -0.2 0.6 0
v -0.2 0.6 -0.1
v -0.2 0.6 -0.2
v -0.2 0.7 0.2
v -0.2 0.7 0.1
v -0.2 0.7 0
v -0.2 0.7 -0.1
v -0.2 0.7 -0.2
v -0.2 0.7 -0.3
v -0.2 0.8 0.2
v -0.2 0.8 0.1
v -0.2 0.8 0
v -0.2 0.8 -0.1
v -0.2 0.8 -0.2
v -0.2 0.8 -0.3
v -0.2 0.9 0.2
v -0.2 0.9 0.1
v -0.2 0.9 -0.1
v -0.2 0.9 -0.2
v -0.2 1 0.2
v -0.2 1 -0.1
v -0.1 0.5 -0.3
v -0.1 0.5 -0.4
v -0.1 0.6 -0.1
v -0.1 0.6 -0.2
v -0.1 0.6 -0.3
v -0.1 0.7 -0.1
v -0.1 0.7 -0.2
v -0.1 0.7 -0.3
v -0.1 0.7 -0.4
v -0.1 0.8 -0.2
v -0.1 0.8 -0.3
v -0.1 0.9 -0.1
v -0.1 0.9 -0.2
v -0.1 0.9 -0.3
v -0.1 1 0.1
v -0.1 1 -0.1
v -0.1 1 -0.2
v -0.1 1.1 0.1
v -0.1 1.1 -0.1
v 0.1 0.1 0.1
v 0.1 0.1 -0.1
v 0.1 0.1 -0.2
v 0.1 0.2 0
v 0.1 0.2 -0.1
v 0.1 0.2 -0.2
v 0.1 0.3 0.1
v 0.1 0.3 0
v -0.2 0.3 0.3
v -0.2 0.3 0.2
v -0.2 0.4 0.3
v -0.2 0.4 0.2
v -0.1 0 0.2
v -0.1 0 0.1
v -0.1 0.1 0.2
v -0.1 0.1 0.1
v -0.1 0.2 0.2
v -0.1 0.2 0.1
v -0.1 0.2 0
v -0.1 0.3 0.1
v -0.1 0.3 0
v 0.1 0.5 -0.3
v 0.1 0.5 -0.4
v 0.1 0.6 -0.3
v 0.1 0.7 -0.3
v 0.1 0.7 -0.4
v 0.1 0.8 -0.2
v 0.1 0.8 -0.3
v 0.1 0.9 -0.1
v 0.1 0.9 -0.2
v 0.1 0.9 -0.3
v 0.1 1 0.1
v 0.1 1 -0.1
v 0.1 1 -0.2
v 0.1 1.1 0.1
v 0.1 1.1 -0.1
v 0.2 0.1 0.1
v 0.2 0.1 -0.1
v 0.2 0.1 -0.2
v 0.2 0.2 0
v 0.2 0.2 -0.1
v 0.2 0.2 -0.2
v 0.2 0.3 0.2
v 0.2 0.3 0.1
v 0.2 0.3 0
v 0.2 0.3 -0.1
v 0.2 0.4 0
v 0.2 0.4 -0.1
v 0.2 0.4 -0.2
v 0.2 0.5 0.1
v 0.2 0.5 0
v 0.2 0.5 -0.1
v 0.2 0.6 0.2
v 0.2 0.6 0.1
v 0.2 0.6 0
v 0.2 0.6 -0.1
v 0.2 0.6 -0.2
v 0.2 0.6 -0.3
v 0.2 0.7 0.2
v 0.2 0.7 0.1
v 0.2 0.7 0
v 0.2 0.7 -0.1
v 0.2 0.7 -0.2
v 0.2 0.8 0.2
v 0.2 0.8 0.1
v 0.2 0.8 0
v 0.2 0.8 -0.1
v 0.2 0.8 -0.2
v 0.2 0.8 -0.3
v 0.2 0.9 0.2
v 0.2 0.9 0.1
v 0.2 0.9 -0.1
v 0.2 0.9 -0.2
v 0.2 1 0.2
v 0.2 1 -0.1
v 0.3 0.3 -0.1
v 0.3 0.3 -0.2
v 0.3 0.4 0
v 0.3 0.4 -0.1
v 0.3 0.4 -0.2
v 0.3 0.5 0.1
v 0.3 0.5 0
v 0.3 0.5 -0.1
v 0.3 0.6 0.1
v 0.3 0.6 0
v 0.3 0.7 0.1
v 0.3 0.7 0
v 0.3 0.8 0
v 0.3 0.8 -0.1
v 0.3 0.9 0.1
v 0.3 0.9 -0.1
v -0.3 0.3 0.3
v -0.3 0.4 0.3
v -0.2 0.3 0.3
v -0.2 0.4 0.3
v -0.3 0.4 0.2
v -0.3 0.5 0.2
v -0.2 0 0.2
v -0.2 0.1 0.2
v -0.2 0.2 0.2
v -0.2 0.3 0.2
v -0.2 0.4 0.2
v -0.2 0.5 0.2
v -0.2 0.6 0.2
v -0.2 0.7 0.2
v -0.2 0.8 0.2
v -0.2 0.9 0.2
v -0.2 1 0.2
v -0.1 0 0.2
v -0.1 0.1 0.2
v -0.1 0.2 0.2
v -0.1 0.7 0.2
v -0.1 0.8 0.2
v 0.1 0.7 0.2
v 0.1 0.8 0.2
v 0.2 0.3 0.2
v 0.2 0.6 0.2
v 0.2 0.7 0.2
v 0.2 0.8 0.2
v 0.2 0.9 0.2
v 0.2 1 0.2
v -0.3 0.5 0.1
v -0.3 0.6 0.1
v -0.3 0.7 0.1
v -0.3 0.9 0.1
v -0.2 0.2 0.1
v -0.2 0.3 0.1
v -0.2 0.5 0.1
v -0.2 0.6 0.1
v -0.2 0.7 0.1
v -0.2 0.8 0.1
v -0.2 0.9 0.1
v -0.1 0.2 0.1
v -0.1 0.3 0.1
v -0.1 1 0.1
v -0.1 1.1 0.1
v 0.1 0.1 0.1
v 0.1 0.3 0.1
v 0.1 1 0.1
v 0.1 1.1 0.1
v 0.2 0.1 0.1
v 0.2 0.3 0.1
v 0.2 0.5 0.1
v 0.2 0.6 0.1
v 0.2 0.7 0.1
v 0.2 0.8 0.1
v 0.2 0.9 0.1
v 0.3 0.5 0.1
v 0.3 0.6 0.1
v 0.3 0.7 0.1
v 0.3 0.9 0.1
v 0.2 0.4 0
v 0.2 0.5 0
v 0.3 0.4 0
v 0.3 0.5 0
v 0.2 0.3 -0.1
v 0.2 0.4 -0.1
v 0.3 0.3 -0.1
v 0.3 0.4 -0.1
v -0.1 0.5 -0.3
v -0.1 0.6 -0.3
v 0.1 0.5 -0.3
v 0.1 0.6 -0.3
v -0.3 0.3 0.2
v -0.3 0.4 0.2
v -0.2 0.3 0.2
v -0.2 0.4 0.2
v -0.3 0.4 0.1
v -0.3 0.5 0.1
v -0.2 0 0.1
v -0.2 0.1 0.1
v -0.2 0.2 0.1
v -0.2 0.4 0.1
v -0.2 0.5 0.1
v -0.1 0 0.1
v -0.1 0.1 0.1
v -0.1 0.2 0.1
v -0.3 0.5 0
v -0.3 0.6 0
v -0.3 0.7 0
v -0.3 0.8 0
v -0.2 0.2 0
v -0.2 0.3 0
v -0.2 0.5 0
v -0.2 0.6 0
v -0.2 0.7 0
v -0.2 0.8 0
v -0.1 0.2 0
v -0.1 0.3 0
v 0.1 0.2 0
v 0.1 0.3 0
v 0.2 0.2 0
v 0.2 0.3 0
v 0.2 0.5 0
v 0.2 0.6 0
v 0.2 0.7 0
v 0.2 0.8 0
v 0.3 0.5 0
v 0.3 0.6 0
v 0.3 0.7 0
v 0.3 0.8 0
v -0.3 0.8 -0.1
v -0.3 0.9 -0.1
v -0.2 0.6 -0.1
v -0.2 0.7 -0.1
v -0.2 0.8 -0.1
v -0.2 0.9 -0.1
v -0.2 1 -0.1
v -0.1 0.6 -0.1
v -0.1 0.7 -0.1
v -0.1 0.9 -0.1
v -0.1 1 -0.1
v -0.1 1.1 -0.1
v 0.1 0.9 -0.1
v 0.1 1 -0.1
v 0.1 1.1 -0.1
v 0.2 0.4 -0.1
v 0.2 0.5 -0.1
v 0.2 0.8 -0.1
v 0.2 0.9 -0.1
v 0.2 1 -0.1
v 0.3 0.4 -0.1
v 0.3 0.5 -0.1
v 0.3 0.8 -0.1
v 0.3 0.9 -0.1
v -0.2 0.3 -0.2
v -0.2 0.4 -0.2
v -0.2 0.6 -0.2
v -0.2 0.8 -0.2
v -0.2 0.9 -0.2
v -0.1 0.4 -0.2
v -0.1 0.6 -0.2
v -0.1 0.8 -0.2
v -0.1 0.9 -0.2
v -0.1 1 -0.2
v 0.1 0.1 -0.2
v 0.1 0.2 -0.2
v 0.1 0.4 -0.2
v 0.1 0.6 -0.2
v 0.1 0.8 -0.2
v 0.1 0.9 -0.2
v 0.1 1 -0.2
v 0.2 0.1 -0.2
v 0.2 0.2 -0.2
v 0.2 0.3 -0.2
v 0.2 0.4 -0.2
v 0.2 0.6 -0.2
v 0.2 0.8 -0.2
v 0.2 0.9 -0.2
v 0.3 0.3 -0.2
v 0.3 0.4 -0.2
v -0.2 0.7 -0.3
v -0.2 0.8 -0.3
v -0.1 0.7 -0.3
v -0.1 0.8 -0.3
v -0.1 0.9 -0.3
v 0.1 0.6 -0.3
v 0.1 0.7 -0.3
v 0.1 0.8 -0.3
v 0.1 0.9 -0.3
v 0.2 0.6 -0.3
v 0.2 0.8 -0.3
v -0.1 0.5 -0.4
v -0.1 0.7 -0.4
v 0.1 0.5 -0.4
v 0.1 0.7 -0.4
v -0.2 0 0.2
v -0.1 0 0.2
v -0.2 0 0.1
v -0.1 0 0.1
v 0.1 0.1 0.1
v 0.2 0.1 0.1
v 0.1 0.1 -0.1
v 0.2 0.1 -0.1
v 0.1 0.1 -0.2
v 0.2 0.1 -0.2
v -0.2 0.2 0.1
v -0.1 0.2 0.1
v -0.2 0.2 0
v -0.1 0.2 0
v -0.3 0.3 0.3
v -0.2 0.3 0.3
v -0.3 0.3 0.2
v -0.2 0.3 0.2
v 0.2 0.3 0.2
v -0.2 0.3 0.1
v -0.1 0.3 0.1
v 0.1 0.3 0.1
v 0.2 0.3 0.1
v -0.2 0.3 0
v -0.1 0.3 0
v 0.1 0.3 0
v 0.2 0.3 0
v -0.2 0.3 -0.1
v 0.2 0.3 -0.1
v 0.3 0.3 -0.1
v -0.2 0.3 -0.2
v 0.2 0.3 -0.2
v 0.3 0.3 -0.2
v -0.3 0.4 0.2
v -0.2 0.4 0.2
v -0.3 0.4 0.1
v -0.2 0.4 0.1
v 0.2 0.4 0
v 0.3 0.4 0
v 0.2 0.4 -0.1
v 0.3 0.4 -0.1
v -0.3 0.5 0.1
v -0.2 0.5 0.1
v 0.2 0.5 0.1
v 0.3 0.5 0.1
v -0.3 0.5 0
v -0.2 0.5 0
v 0.2 0.5 0
v 0.3 0.5 0
v -0.1 0.5 -0.3
v 0.1 0.5 -0.3
v -0.1 0.5 -0.4
v 0.1 0.5 -0.4
v -0.1 0.6 -0.2
v 0.1 0.6 -0.2
v 0.2 0.6 -0.2
v -0.1 0.6 -0.3
v 0.1 0.6 -0.3
v 0.2 0.6 -0.3
v -0.3 0.7 0.1
v -0.2 0.7 0.1
v 0.2 0.7 0.1
v 0.3 0.7 0.1
v -0.3 0.7 0
v -0.2 0.7 0
v 0.2 0.7 0
v 0.3 0.7 0
v -0.2 0.7 -0.1
v -0.1 0.7 -0.1
v -0.2 0.7 -0.2
v -0.1 0.7 -0.2
v -0.2 0.7 -0.3
v -0.1 0.7 -0.3
v -0.3 0.8 0
v -0.2 0.8 0
v 0.2 0.8 0
v 0.3 0.8 0
v -0.3 0.8 -0.1
v -0.2 0.8 -0.1
v 0.2 0.8 -0.1
v 0.3 0.8 -0.1
v -0.2 0.2 0.2
v -0.1 0.2 0.2
v -0.2 0.2 0.1
v -0.1 0.2 0.1
v 0.1 0.2 0
v 0.2 0.2 0
v 0.1 0.2 -0.1
v 0.2 0.2 -0.1
v 0.1 0.2 -0.2
v 0.2 0.2 -0.2
v -0.3 0.4 0.3
v -0.2 0.4 0.3
v -0.3 0.4 0.2
v -0.2 0.4 0.2
v 0.2 0.4 -0.1
v 0.3 0.4 -0.1
v 0.2 0.4 -0.2
v 0.3 0.4 -0.2
v -0.3 0.5 0.2
v -0.2 0.5 0.2
v -0.3 0.5 0.1
v -0.2 0.5 0.1
v 0.2 0.5 0
v 0.3 0.5 0
v 0.2 0.5 -0.1
v 0.3 0.5 -0.1
v -0.3 0.6 0.1
v -0.2 0.6 0.1
v 0.2 0.6 0.1
v 0.3 0.6 0.1
v -0.3 0.6 0
v -0.2 0.6 0
v 0.2 0.6 0
v 0.3 0.6 0
v -0.2 0.6 -0.1
v -0.1 0.6 -0.1
v -0.2 0.6 -0.2
v -0.1 0.6 -0.2
v -0.1 0.7 -0.3
v 0.1 0.7 -0.3
v -0.1 0.7 -0.4
v 0.1 0.7 -0.4
v -0.2 0.8 -0.2
v -0.1 0.8 -0.2
v 0.1 0.8 -0.2
v 0.2 0.8 -0.2
v -0.2 0.8 -0.3
v -0.1 0.8 -0.3
v 0.1 0.8 -0.3
v 0.2 0.8 -0.3
v -0.3 0.9 0.1
v -0.2 0.9 0.1
v 0.2 0.9 0.1
v 0.3 0.9 0.1
v -0.3 0.9 -0.1
v -0.2 0.9 -0.1
v -0.1 0.9 -0.1
v 0.1 0.9 -0.1
v 0.2 0.9 -0.1
v 0.3 0.9 -0.1
v -0.2 0.9 -0.2
v -0.1 0.9 -0.2
v 0.1 0.9 -0.2
v 0.2 0.9 -0.2
v -0.1 0.9 -0.3
v 0.1 0.9 -0.3
v -0.2 1 0.2
v 0.2 1 0.2
v -0.1 1 0.1
v 0.1 1 0.1
v -0.2 1 -0.1
v -0.1 1 -0.1
v 0.1 1 -0.1
v 0.2 1 -0.1
v -0.1 1 -0.2
v 0.1 1 -0.2
v -0.1 1.1 0.1
v 0.1 1.1 0.1
v -0.1 1.1 -0.1
v 0.1 1.1 -0.1

# faces
f 3/2/1 2/2/1 1/2/1
f 4/2/1 2/2/1 3/2/1
f 6/8/1 5/8/1 4/8/1
f 7/8/1 5/8/1 6/8/1
f 9/8/1 8/8/1 7/8/1
f 10/8/1 8/8/1 9/8/1
f 13/9/1 12/9/1 11/9/1
f 15/9/1 13/9/1 11/9/1
f 15/9/1 14/9/1 13/9/1
f 16/9/1 14/9/1 15/9/1
f 19/11/1 18/11/1 17/11/1
f 20/11/1 18/11/1 19/11/1
f 21/7/1 20/7/1 19/7/1
f 22/7/1 20/7/1 21/7/1
f 25/7/1 23/7/1 22/7/1
f 26/7/1 23/7/1 25/7/1
f 29/6/1 25/6/1 24/6/1
f 29/6/1 26/6/1 25/6/1
f 29/6/1 27/6/1 26/6/1
f 30/6/1 27/6/1 29/6/1
f 31/3/1 28/3/1 27/3/1
f 31/6/1 27/6/1 30/6/1
f 32/3/1 28/3/1 31/3/1
f 34/6/1 31/6/1 30/6/1
f 35/6/1 31/6/1 34/6/1
f 36/6/1 34/6/1 33/6/1
f 37/6/1 34/6/1 36/6/1
f 38/6/1 31/6/1 35/6/1
f 39/5/1 32/5/1 31/5/1
f 39/6/1 31/6/1 38/6/1
f 40/5/1 32/5/1 39/5/1
f 41/1/1 38/1/1 37/1/1
f 41/1/1 37/1/1 36/1/1
f 41/1/1 39/1/1 38/1/1
f 42/1/1 39/1/1 41/1/1
f 43/1/1 39/1/1 42/1/1
f 44/1/1 39/1/1 43/1/1
f 47/10/1 42/10/1 41/10/1
f 48/10/1 42/10/1 47/10/1
f 49/1/1 45/1/1 44/1/1
f 49/1/1 44/1/1 43/1/1
f 50/1/1 45/1/1 49/1/1
f 51/9/1 46/9/1 45/9/1
f 51/1/1 45/1/1 50/1/1
f 52/9/1 46/9/1 51/9/1
f 53/1/1 48/1/1 47/1/1
f 54/1/1 48/1/1 53/1/1
f 55/9/1 51/9/1 50/9/1
f 56/9/1 51/9/1 55/9/1
f 57/9/1 54/9/1 53/9/1
f 57/9/1 55/9/1 54/9/1
f 58/9/1 55/9/1 57/9/1
f 63/9/1 60/9/1 59/9/1
f 64/1/1 62/1/1 61/1/1
f 65/9/1 63/9/1 62/9/1
f 65/1/1 62/1/1 64/1/1
f 66/9/1 60/9/1 63/9/1
f 66/9/1 63/9/1 65/9/1
f 67/9/1 60/9/1 66/9/1
f 71/9/1 69/9/1 68/9/1
f 72/9/1 69/9/1 71/9/1
f 74/9/1 71/9/1 70/9/1
f 75/9/1 71/9/1 74/9/1
f 76/9/1 74/9/1 73/9/1
f 77/9/1 74/9/1 76/9/1
f 81/7/1 79/7/1 78/7/1
f 82/11/1 80/11/1 79/11/1
f 82/7/1 79/7/1 81/7/1
f 83/11/1 80/11/1 82/11/1
f 84/7/1 81/7/1 78/7/1
f 85/7/1 81/7/1 84/7/1
f 86/2/2 87/2/2 88/2/2
f 88/2/2 87/2/2 89/2/2
f 90/11/2 91/11/2 92/11/2
f 92/11/2 91/11/2 93/11/2
f 92/7/2 93/7/2 94/7/2
f 94/7/2 93/7/2 95/7/2
f 95/7/2 96/7/2 97/7/2
f 97/7/2 96/7/2 98/7/2
f 99/9/2 100/9/2 101/9/2
f 101/9/2 100/9/2 102/9/2
f 102/9/2 100/9/2 103/9/2
f 104/9/2 105/9/2 107/9/2
f 107/9/2 105/9/2 108/9/2
f 106/9/2 107/9/2 110/9/2
f 110/9/2 107/9/2 111/9/2
f 109/9/2 110/9/2 112/9/2
f 112/9/2 110/9/2 113/9/2
f 114/7/2 115/7/2 117/7/2
f 115/11/2 116/11/2 118/11/2
f 117/7/2 115/7/2 118/7/2
f 118/11/2 116/11/2 119/11/2
f 114/7/2 117/7/2 121/7/2
f 121/7/2 117/7/2 122/7/2
f 120/6/2 121/6/2 124/6/2
f 122/6/2 123/6/2 124/6/2
f 121/6/2 122/6/2 124/6/2
f 124/6/2 123/6/2 125/6/2
f 120/6/2 124/6/2 127/6/2
f 127/6/2 124/6/2 128/6/2
f 125/5/2 126/5/2 129/5/2
f 120/6/2 127/6/2 130/6/2
f 130/6/2 127/6/2 131/6/2
f 128/6/2 129/6/2 132/6/2
f 129/5/2 126/5/2 133/5/2
f 132/6/2 129/6/2 133/6/2
f 133/5/2 126/5/2 134/5/2
f 130/1/2 131/1/2 136/1/2
f 131/1/2 132/1/2 136/1/2
f 132/1/2 133/1/2 136/1/2
f 136/1/2 133/1/2 137/1/2
f 137/1/2 133/1/2 138/1/2
f 133/9/2 134/9/2 139/9/2
f 138/1/2 133/1/2 139/1/2
f 134/9/2 135/9/2 139/9/2
f 139/9/2 135/9/2 140/9/2
f 136/10/2 137/10/2 141/10/2
f 141/10/2 137/10/2 142/10/2
f 139/1/2 140/1/2 143/1/2
f 138/1/2 139/1/2 143/1/2
f 143/1/2 140/1/2 144/1/2
f 140/9/2 135/9/2 145/9/2
f 144/1/2 140/1/2 145/1/2
f 145/9/2 135/9/2 146/9/2
f 141/1/2 142/1/2 147/1/2
f 147/1/2 142/1/2 148/1/2
f 144/9/2 145/9/2 149/9/2
f 149/9/2 145/9/2 150/9/2
f 147/9/2 148/9/2 151/9/2
f 148/9/2 149/9/2 151/9/2
f 151/9/2 149/9/2 152/9/2
f 153/2/2 154/2/2 156/2/2
f 156/2/2 154/2/2 157/2/2
f 155/8/2 156/8/2 159/8/2
f 159/8/2 156/8/2 160/8/2
f 158/8/2 159/8/2 161/8/2
f 161/8/2 159/8/2 162/8/2
f 163/9/2 164/9/2 165/9/2
f 163/9/2 165/9/2 167/9/2
f 165/9/2 166/9/2 167/9/2
f 167/9/2 166/9/2 168/9/2
f 171/2/3 170/2/3 169/2/3
f 172/2/3 170/2/3 171/2/3
f 179/8/3 174/8/3 173/8/3
f 180/8/3 174/8/3 179/8/3
f 186/11/3 176/11/3 175/11/3
f 187/7/3 177/7/3 176/7/3
f 187/11/3 176/11/3 186/11/3
f 188/7/3 177/7/3 187/7/3
f 189/1/3 182/1/3 181/1/3
f 189/10/3 183/10/3 182/10/3
f 190/1/3 184/1/3 183/1/3
f 190/10/3 183/10/3 189/10/3
f 191/1/3 190/1/3 189/1/3
f 191/1/3 189/1/3 181/1/3
f 192/1/3 184/1/3 190/1/3
f 192/1/3 190/1/3 191/1/3
f 193/6/3 179/6/3 178/6/3
f 193/6/3 180/6/3 179/6/3
f 193/6/3 181/6/3 180/6/3
f 194/1/3 191/1/3 181/1/3
f 194/6/3 181/6/3 193/6/3
f 195/10/3 192/10/3 191/10/3
f 195/1/3 191/1/3 194/1/3
f 196/1/3 184/1/3 192/1/3
f 196/10/3 192/10/3 195/10/3
f 197/9/3 185/9/3 184/9/3
f 197/1/3 184/1/3 196/1/3
f 198/9/3 185/9/3 197/9/3
f 205/8/3 200/8/3 199/8/3
f 206/8/3 200/8/3 205/8/3
f 207/9/3 202/9/3 201/9/3
f 208/9/3 202/9/3 207/9/3
f 209/9/3 202/9/3 208/9/3
f 210/7/3 204/7/3 203/7/3
f 211/7/3 204/7/3 210/7/3
f 216/9/3 213/9/3 212/9/3
f 217/9/3 213/9/3 216/9/3
f 218/7/3 215/7/3 214/7/3
f 219/7/3 215/7/3 218/7/3
f 225/8/3 221/8/3 220/8/3
f 226/8/3 221/8/3 225/8/3
f 227/9/3 224/9/3 223/9/3
f 227/9/3 223/9/3 222/9/3
f 228/9/3 224/9/3 227/9/3
f 231/8/3 230/8/3 229/8/3
f 232/8/3 230/8/3 231/8/3
f 235/2/3 234/2/3 233/2/3
f 236/2/3 234/2/3 235/2/3
f 239/9/3 238/9/3 237/9/3
f 240/9/3 238/9/3 239/9/3
f 241/2/4 242/2/4 243/2/4
f 243/2/4 242/2/4 244/2/4
f 245/8/4 246/8/4 250/8/4
f 250/8/4 246/8/4 251/8/4
f 247/11/4 248/11/4 252/11/4
f 248/7/4 249/7/4 253/7/4
f 252/11/4 248/11/4 253/11/4
f 253/7/4 249/7/4 254/7/4
f 255/8/4 256/8/4 261/8/4
f 261/8/4 256/8/4 262/8/4
f 257/9/4 258/9/4 263/9/4
f 263/9/4 258/9/4 264/9/4
f 259/7/4 260/7/4 265/7/4
f 265/7/4 260/7/4 266/7/4
f 267/7/4 268/7/4 269/7/4
f 269/7/4 268/7/4 270/7/4
f 271/8/4 272/8/4 275/8/4
f 275/8/4 272/8/4 276/8/4
f 273/9/4 274/9/4 277/9/4
f 277/9/4 274/9/4 278/9/4
f 279/9/4 280/9/4 283/9/4
f 283/9/4 280/9/4 284/9/4
f 281/1/4 282/1/4 286/1/4
f 286/1/4 282/1/4 287/1/4
f 284/9/4 285/9/4 288/9/4
f 288/9/4 285/9/4 289/9/4
f 289/9/4 290/9/4 292/9/4
f 292/9/4 290/9/4 293/9/4
f 291/9/4 292/9/4 297/9/4
f 297/9/4 292/9/4 298/9/4
f 294/8/4 295/8/4 299/8/4
f 299/8/4 295/8/4 300/8/4
f 296/9/4 297/9/4 301/9/4
f 301/9/4 297/9/4 302/9/4
f 303/3/4 304/3/4 308/3/4
f 304/5/4 305/5/4 308/5/4
f 308/5/4 305/5/4 309/5/4
f 306/9/4 307/9/4 310/9/4
f 310/9/4 307/9/4 311/9/4
f 308/4/4 309/4/4 315/4/4
f 303/3/4 308/3/4 315/3/4
f 315/4/4 309/4/4 316/4/4
f 311/9/4 312/9/4 318/9/4
f 318/9/4 312/9/4 319/9/4
f 313/11/4 314/11/4 320/11/4
f 320/11/4 314/11/4 321/11/4
f 303/3/4 315/3/4 322/3/4
f 315/5/4 316/5/4 323/5/4
f 322/3/4 315/3/4 323/3/4
f 323/5/4 316/5/4 324/5/4
f 317/9/4 318/9/4 325/9/4
f 325/9/4 318/9/4 326/9/4
f 322/2/4 323/2/4 327/2/4
f 327/2/4 323/2/4 328/2/4
f 329/9/4 330/9/4 331/9/4
f 331/9/4 330/9/4 332/9/4
f 331/9/4 332/9/4 335/9/4
f 332/9/4 333/9/4 335/9/4
f 335/9/4 333/9/4 336/9/4
f 336/9/4 333/9/4 337/9/4
f 334/9/4 335/9/4 338/9/4
f 335/9/4 336/9/4 338/9/4
f 338/9/4 336/9/4 339/9/4
f 340/9/4 341/9/4 342/9/4
f 342/9/4 341/9/4 343/9/4
f 346/11/5 345/11/5 344/11/5
f 347/11/5 345/11/5 346/11/5
f 350/7/5 349/7/5 348/7/5
f 351/7/5 349/7/5 350/7/5
f 352/11/5 351/11/5 350/11/5
f 353/11/5 351/11/5 352/11/5
f 356/7/5 355/7/5 354/7/5
f 357/7/5 355/7/5 356/7/5
f 360/2/5 359/2/5 358/2/5
f 361/2/5 359/2/5 360/2/5
f 363/6/5 362/6/5 361/6/5
f 364/6/5 362/6/5 363/6/5
f 365/6/5 362/6/5 364/6/5
f 366/6/5 362/6/5 365/6/5
f 368/6/5 365/6/5 364/6/5
f 369/6/5 365/6/5 368/6/5
f 371/6/5 368/6/5 367/6/5
f 371/6/5 370/6/5 369/6/5
f 371/6/5 369/6/5 368/6/5
f 372/6/5 370/6/5 371/6/5
f 374/3/5 372/3/5 371/3/5
f 375/2/5 373/2/5 372/2/5
f 375/3/5 372/3/5 374/3/5
f 376/2/5 373/2/5 375/2/5
f 379/8/5 378/8/5 377/8/5
f 380/8/5 378/8/5 379/8/5
f 383/8/5 382/8/5 381/8/5
f 384/8/5 382/8/5 383/8/5
f 389/8/5 386/8/5 385/8/5
f 390/8/5 386/8/5 389/8/5
f 391/8/5 388/8/5 387/8/5
f 392/8/5 388/8/5 391/8/5
f 395/9/5 394/9/5 393/9/5
f 396/9/5 394/9/5 395/9/5
f 400/9/5 398/9/5 397/9/5
f 400/9/5 399/9/5 398/9/5
f 401/9/5 399/9/5 400/9/5
f 402/9/5 399/9/5 401/9/5
f 407/9/5 404/9/5 403/9/5
f 408/9/5 404/9/5 407/9/5
f 409/9/5 406/9/5 405/9/5
f 410/9/5 406/9/5 409/9/5
f 413/1/5 412/1/5 411/1/5
f 414/1/5 412/1/5 413/1/5
f 415/9/5 414/9/5 413/9/5
f 416/9/5 414/9/5 415/9/5
f 421/9/5 418/9/5 417/9/5
f 422/9/5 418/9/5 421/9/5
f 423/9/5 420/9/5 419/9/5
f 424/9/5 420/9/5 423/9/5
f 425/7/6 426/7/6 427/7/6
f 427/7/6 426/7/6 428/7/6
f 429/7/6 430/7/6 431/7/6
f 431/7/6 430/7/6 432/7/6
f 431/11/6 432/11/6 433/11/6
f 433/11/6 432/11/6 434/11/6
f 435/2/6 436/2/6 437/2/6
f 437/2/6 436/2/6 438/2/6
f 439/2/6 440/2/6 441/2/6
f 441/2/6 440/2/6 442/2/6
f 443/8/6 444/8/6 445/8/6
f 445/8/6 444/8/6 446/8/6
f 447/8/6 448/8/6 449/8/6
f 449/8/6 448/8/6 450/8/6
f 451/8/6 452/8/6 455/8/6
f 455/8/6 452/8/6 456/8/6
f 453/8/6 454/8/6 457/8/6
f 457/8/6 454/8/6 458/8/6
f 459/5/6 460/5/6 461/5/6
f 461/5/6 460/5/6 462/5/6
f 463/9/6 464/9/6 465/9/6
f 465/9/6 464/9/6 466/9/6
f 467/9/6 468/9/6 471/9/6
f 471/9/6 468/9/6 472/9/6
f 469/9/6 470/9/6 473/9/6
f 473/9/6 470/9/6 474/9/6
f 475/9/6 476/9/6 479/9/6
f 479/9/6 476/9/6 480/9/6
f 477/9/6 478/9/6 483/9/6
f 483/9/6 478/9/6 484/9/6
f 480/9/6 481/9/6 485/9/6
f 485/9/6 481/9/6 486/9/6
f 482/9/6 483/9/6 487/9/6
f 487/9/6 483/9/6 488/9/6
f 486/9/6 487/9/6 489/9/6
f 489/9/6 487/9/6 490/9/6
f 491/9/6 492/9/6 493/9/6
f 493/9/6 492/9/6 494/9/6
f 491/9/6 493/9/6 495/9/6
f 495/9/6 493/9/6 496/9/6
f 494/9/6 492/9/6 497/9/6
f 497/9/6 492/9/6 498/9/6
f 496/9/6 497/9/6 499/9/6
f 499/9/6 497/9/6 500/9/6
f 501/9/6 502/9/6 503/9/6
f 503/9/6 502/9/6 504/9/6
